<svg xmlns="http://www.w3.org/2000/svg" xmlns:xlink="http://www.w3.org/1999/xlink" width="500" zoomAndPan="magnify" viewBox="0 0 375 74.999997" height="100" preserveAspectRatio="xMidYMid meet" version="1.0"><defs><g/></defs><g fill="#ffffff" fill-opacity="1"><g transform="translate(6.515632, 47.249995)"><g><path d="M 9.132812 0.355469 C 13.304688 0.355469 16.003906 -1.691406 16.003906 -5.015625 C 16.003906 -7.824219 14.121094 -9.515625 9.242188 -10.714844 C 5.535156 -11.613281 4.308594 -12.59375 4.308594 -14.175781 C 4.308594 -16.003906 5.941406 -17.148438 8.667969 -17.148438 C 11.476562 -17.148438 13.222656 -15.730469 13.277344 -13.441406 L 15.648438 -13.441406 C 15.621094 -17.148438 12.949219 -19.4375 8.667969 -19.4375 C 4.5 -19.4375 1.855469 -17.394531 1.855469 -14.175781 C 1.855469 -11.230469 3.953125 -9.597656 8.640625 -8.480469 C 12.078125 -7.660156 13.523438 -6.707031 13.523438 -4.933594 C 13.523438 -3.054688 11.832031 -1.9375 9.132812 -1.9375 C 6.160156 -1.9375 4.089844 -3.40625 4.035156 -5.863281 L 1.636719 -5.863281 C 1.664062 -2.125 4.582031 0.355469 9.132812 0.355469 Z M 9.132812 0.355469 "/></g></g></g><g fill="#ffffff" fill-opacity="1"><g transform="translate(24.151468, 47.249995)"><g><path d="M 15.292969 0 L 17.695312 0 L 17.695312 -19.082031 L 15.292969 -19.082031 L 15.292969 -10.878906 L 5.179688 -10.878906 L 5.179688 -19.082031 L 2.78125 -19.082031 L 2.78125 0 L 5.179688 0 L 5.179688 -8.585938 L 15.292969 -8.585938 Z M 15.292969 0 "/></g></g></g><g fill="#ffffff" fill-opacity="1"><g transform="translate(44.62212, 47.249995)"><g><path d="M 0.464844 0 L 3.027344 0 L 4.769531 -4.335938 L 14.066406 -4.335938 L 15.867188 0 L 18.402344 0 L 10.550781 -19.082031 L 8.316406 -19.082031 Z M 5.699219 -6.570312 L 9.433594 -15.730469 L 13.167969 -6.570312 Z M 5.699219 -6.570312 "/></g></g></g><g fill="#ffffff" fill-opacity="1"><g transform="translate(63.484557, 47.249995)"><g><path d="M 2.78125 0 L 5.152344 0 L 5.152344 -14.941406 L 15.703125 0 L 17.9375 0 L 17.9375 -19.082031 L 15.59375 -19.082031 L 15.59375 -4.144531 L 5.042969 -19.082031 L 2.78125 -19.082031 Z M 2.78125 0 "/></g></g></g><g fill="#ffffff" fill-opacity="1"><g transform="translate(84.200524, 47.249995)"><g><path d="M 2.78125 0 L 14.667969 0 L 14.667969 -2.234375 L 5.179688 -2.234375 L 5.179688 -8.613281 L 13.6875 -8.613281 L 13.6875 -10.824219 L 5.179688 -10.824219 L 5.179688 -16.847656 L 14.367188 -16.847656 L 14.367188 -19.082031 L 2.78125 -19.082031 Z M 2.78125 0 "/></g></g></g><g fill="#ffffff" fill-opacity="1"><g transform="translate(100.628906, 47.249995)"><g/></g></g><g fill="#ffffff" fill-opacity="1"><g transform="translate(107.38885, 47.249995)"><g/></g></g><g fill="#ffffff" fill-opacity="1"><g transform="translate(114.148794, 47.249995)"><g/></g></g><g fill="#ffffff" fill-opacity="1"><g transform="translate(120.908739, 47.249995)"><g/></g></g><g fill="#ffffff" fill-opacity="1"><g transform="translate(127.668683, 47.249995)"><g/></g></g><g fill="#ffffff" fill-opacity="1"><g transform="translate(134.428627, 47.249995)"><g/></g></g><g fill="#ffffff" fill-opacity="1"><g transform="translate(141.188572, 47.249995)"><g/></g></g><g fill="#ffffff" fill-opacity="1"><g transform="translate(147.948516, 47.249995)"><g/></g></g><g fill="#ffffff" fill-opacity="1"><g transform="translate(154.708461, 47.249995)"><g/></g></g><g fill="#ffffff" fill-opacity="1"><g transform="translate(161.460932, 47.249995)"><g><path d="M 15.292969 0 L 17.695312 0 L 17.695312 -19.082031 L 15.292969 -19.082031 L 15.292969 -10.878906 L 5.179688 -10.878906 L 5.179688 -19.082031 L 2.78125 -19.082031 L 2.78125 0 L 5.179688 0 L 5.179688 -8.585938 L 15.292969 -8.585938 Z M 15.292969 0 "/></g></g></g><g fill="#ffffff" fill-opacity="1"><g transform="translate(181.931584, 47.249995)"><g><path d="M 2.78125 0 L 14.667969 0 L 14.667969 -2.234375 L 5.179688 -2.234375 L 5.179688 -8.613281 L 13.6875 -8.613281 L 13.6875 -10.824219 L 5.179688 -10.824219 L 5.179688 -16.847656 L 14.367188 -16.847656 L 14.367188 -19.082031 L 2.78125 -19.082031 Z M 2.78125 0 "/></g></g></g><g fill="#ffffff" fill-opacity="1"><g transform="translate(198.368068, 47.249995)"><g><path d="M 2.78125 0 L 5.152344 0 L 5.152344 -14.941406 L 15.703125 0 L 17.9375 0 L 17.9375 -19.082031 L 15.59375 -19.082031 L 15.59375 -4.144531 L 5.042969 -19.082031 L 2.78125 -19.082031 Z M 2.78125 0 "/></g></g></g><g fill="#ffffff" fill-opacity="1"><g transform="translate(219.084035, 47.249995)"><g><path d="M 2.78125 0 L 9.378906 0 C 15.238281 0 19.164062 -3.898438 19.164062 -9.542969 C 19.164062 -15.183594 15.238281 -19.082031 9.378906 -19.082031 L 2.78125 -19.082031 Z M 5.179688 -2.289062 L 5.179688 -16.792969 L 9.269531 -16.792969 C 13.714844 -16.792969 16.710938 -13.875 16.710938 -9.542969 C 16.710938 -5.207031 13.742188 -2.289062 9.378906 -2.289062 Z M 5.179688 -2.289062 "/></g></g></g><g fill="#ffffff" fill-opacity="1"><g transform="translate(239.827263, 47.249995)"><g><path d="M 2.78125 0 L 5.179688 0 L 5.179688 -6.84375 L 9.378906 -6.84375 L 14.039062 0 L 16.929688 0 L 12.132812 -7.089844 C 14.914062 -7.769531 16.628906 -9.867188 16.628906 -12.949219 C 16.628906 -16.738281 14.011719 -19.082031 10.058594 -19.082031 L 2.78125 -19.082031 Z M 5.179688 -9.132812 L 5.179688 -16.792969 L 9.789062 -16.792969 C 12.566406 -16.792969 14.175781 -15.375 14.175781 -12.949219 C 14.175781 -10.523438 12.566406 -9.132812 9.789062 -9.132812 Z M 5.179688 -9.132812 "/></g></g></g><g fill="#ffffff" fill-opacity="1"><g transform="translate(258.389864, 47.249995)"><g><path d="M 2.78125 0 L 5.179688 0 L 5.179688 -19.082031 L 2.78125 -19.082031 Z M 2.78125 0 "/></g></g></g><g fill="#ffffff" fill-opacity="1"><g transform="translate(266.349161, 47.249995)"><g><path d="M 11.230469 0.355469 C 15.867188 0.355469 19.628906 -2.453125 20.773438 -6.707031 L 18.238281 -6.707031 C 17.257812 -3.84375 14.558594 -2.042969 11.3125 -2.042969 C 7.0625 -2.042969 4.035156 -5.125 4.035156 -9.542969 C 4.035156 -13.957031 7.0625 -17.039062 11.3125 -17.039062 C 14.476562 -17.039062 17.066406 -15.347656 18.046875 -12.59375 L 20.609375 -12.59375 C 19.355469 -16.792969 15.730469 -19.4375 11.230469 -19.4375 C 5.617188 -19.4375 1.582031 -15.292969 1.582031 -9.542969 C 1.582031 -3.789062 5.617188 0.355469 11.230469 0.355469 Z M 11.230469 0.355469 "/></g></g></g><g fill="#ffffff" fill-opacity="1"><g transform="translate(288.591575, 47.249995)"><g><path d="M 2.78125 0 L 5.179688 0 L 5.179688 -8.585938 L 7.90625 -8.585938 C 8.640625 -8.585938 9.296875 -8.640625 9.894531 -8.75 L 14.832031 0 L 17.613281 0 L 12.132812 -9.625 C 13.222656 -10.332031 13.984375 -11.421875 14.53125 -12.867188 L 16.875 -19.082031 L 14.339844 -19.082031 L 12.378906 -13.820312 C 11.613281 -11.75 10.496094 -10.878906 7.90625 -10.878906 L 5.179688 -10.878906 L 5.179688 -19.082031 L 2.78125 -19.082031 Z M 2.78125 0 "/></g></g></g><g fill="#ffffff" fill-opacity="1"><g transform="translate(307.235944, 47.249995)"><g><path d="M 9.132812 0.355469 C 13.304688 0.355469 16.003906 -1.691406 16.003906 -5.015625 C 16.003906 -7.824219 14.121094 -9.515625 9.242188 -10.714844 C 5.535156 -11.613281 4.308594 -12.59375 4.308594 -14.175781 C 4.308594 -16.003906 5.941406 -17.148438 8.667969 -17.148438 C 11.476562 -17.148438 13.222656 -15.730469 13.277344 -13.441406 L 15.648438 -13.441406 C 15.621094 -17.148438 12.949219 -19.4375 8.667969 -19.4375 C 4.5 -19.4375 1.855469 -17.394531 1.855469 -14.175781 C 1.855469 -11.230469 3.953125 -9.597656 8.640625 -8.480469 C 12.078125 -7.660156 13.523438 -6.707031 13.523438 -4.933594 C 13.523438 -3.054688 11.832031 -1.9375 9.132812 -1.9375 C 6.160156 -1.9375 4.089844 -3.40625 4.035156 -5.863281 L 1.636719 -5.863281 C 1.664062 -2.125 4.582031 0.355469 9.132812 0.355469 Z M 9.132812 0.355469 "/></g></g></g><g fill="#ffffff" fill-opacity="1"><g transform="translate(324.87178, 47.249995)"><g><path d="M 11.449219 0.355469 C 17.257812 0.355469 21.347656 -3.734375 21.347656 -9.542969 C 21.347656 -15.347656 17.257812 -19.4375 11.449219 -19.4375 C 5.644531 -19.4375 1.582031 -15.347656 1.582031 -9.542969 C 1.582031 -3.734375 5.644531 0.355469 11.449219 0.355469 Z M 4.035156 -9.542969 C 4.035156 -13.984375 7.0625 -17.039062 11.449219 -17.039062 C 15.839844 -17.039062 18.867188 -13.984375 18.867188 -9.542969 C 18.867188 -5.097656 15.839844 -2.042969 11.449219 -2.042969 C 7.0625 -2.042969 4.035156 -5.097656 4.035156 -9.542969 Z M 4.035156 -9.542969 "/></g></g></g><g fill="#ffffff" fill-opacity="1"><g transform="translate(347.768385, 47.249995)"><g><path d="M 2.78125 0 L 5.152344 0 L 5.152344 -14.941406 L 15.703125 0 L 17.9375 0 L 17.9375 -19.082031 L 15.59375 -19.082031 L 15.59375 -4.144531 L 5.042969 -19.082031 L 2.78125 -19.082031 Z M 2.78125 0 "/></g></g></g><g fill="#ffffff" fill-opacity="1"><g transform="translate(101.357073, 70.489565)"><g><path d="M 31.242188 1.210938 C 45.511719 1.210938 54.742188 -5.78125 54.742188 -17.160156 C 54.742188 -26.765625 48.308594 -32.546875 31.617188 -36.652344 C 18.933594 -39.730469 14.734375 -43.085938 14.734375 -48.496094 C 14.734375 -54.742188 20.332031 -58.660156 29.65625 -58.660156 C 39.261719 -58.660156 45.230469 -53.8125 45.417969 -45.976562 L 53.53125 -45.976562 C 53.4375 -58.660156 44.300781 -66.496094 29.65625 -66.496094 C 15.386719 -66.496094 6.339844 -59.5 6.339844 -48.496094 C 6.339844 -38.421875 13.523438 -32.828125 29.5625 -29.003906 C 41.316406 -26.207031 46.257812 -22.941406 46.257812 -16.878906 C 46.257812 -10.445312 40.476562 -6.621094 31.242188 -6.621094 C 21.078125 -6.621094 13.988281 -11.65625 13.800781 -20.050781 L 5.59375 -20.050781 C 5.6875 -7.273438 15.667969 1.210938 31.242188 1.210938 Z M 31.242188 1.210938 "/></g></g></g><g fill="#ffffff" fill-opacity="1"><g transform="translate(109.656972, 47.793747)"><g><path d="M 22.863281 7.105469 L 29.894531 9.289062 L 39.515625 -21.664062 L 32.484375 -23.851562 L 28.785156 -11.953125 L 16.667969 -15.71875 L 20.367188 -27.617188 L 13.335938 -29.800781 L 3.714844 1.15625 L 10.746094 3.339844 L 14.621094 -9.132812 L 26.738281 -5.367188 Z M 22.863281 7.105469 "/></g></g></g></svg>