<svg xmlns="http://www.w3.org/2000/svg" xmlns:xlink="http://www.w3.org/1999/xlink" width="500" zoomAndPan="magnify" viewBox="0 0 375 374.999991" height="500" preserveAspectRatio="xMidYMid meet" version="1.0"><defs><g/></defs><g fill="#ffffff" fill-opacity="1"><g transform="translate(25.020841, 363.374976)"><g><path d="M 168.253906 6.527344 C 245.097656 6.527344 294.820312 -31.140625 294.820312 -92.414062 C 294.820312 -144.144531 260.167969 -175.285156 170.261719 -197.386719 C 101.957031 -213.960938 79.355469 -232.039062 79.355469 -261.171875 C 79.355469 -294.820312 109.492188 -315.917969 159.714844 -315.917969 C 211.449219 -315.917969 243.59375 -289.800781 244.597656 -247.609375 L 288.292969 -247.609375 C 287.789062 -315.917969 238.570312 -358.105469 159.714844 -358.105469 C 82.871094 -358.105469 34.152344 -320.4375 34.152344 -261.171875 C 34.152344 -206.929688 72.828125 -176.792969 159.214844 -156.199219 C 222.496094 -141.132812 249.117188 -123.554688 249.117188 -90.90625 C 249.117188 -56.253906 217.976562 -35.660156 168.253906 -35.660156 C 113.507812 -35.660156 75.335938 -62.78125 74.332031 -107.984375 L 30.136719 -107.984375 C 30.636719 -39.175781 84.378906 6.527344 168.253906 6.527344 Z M 168.253906 6.527344 "/></g></g></g><g fill="#ffffff" fill-opacity="1"><g transform="translate(69.719666, 241.147513)"><g><path d="M 123.125 38.265625 L 160.992188 50.03125 L 212.800781 -116.675781 L 174.933594 -128.441406 L 155.027344 -64.378906 L 89.769531 -84.660156 L 109.679688 -148.722656 L 71.8125 -160.492188 L 20.003906 6.21875 L 57.871094 17.984375 L 78.742188 -49.175781 L 143.996094 -28.894531 Z M 123.125 38.265625 "/></g></g></g></svg>